<svg width="342" height="115" viewBox="0 0 342 115" fill="none" xmlns="http://www.w3.org/2000/svg">
<path d="M0.52 88V26.8H15.28V31.96C18.76 27.4 24.04 24.76 29.92 24.76C32.56 24.76 35.32 25.36 38.08 26.44L31.48 41.56C29.56 40.72 28.36 40.36 26.56 40.36C19.84 40.36 16.36 45.28 16.36 54.76V88H0.52ZM104.103 26.8V88H89.1034V82.6C83.7034 87.16 76.7434 89.8 69.1834 89.8C51.5434 89.8 37.3834 75.4 37.3834 57.4C37.3834 39.4 51.5434 25 69.1834 25C76.7434 25 83.7034 27.64 89.1034 32.2V26.8H104.103ZM54.0634 57.4C54.0634 67.48 61.6234 75.16 71.2234 75.16C80.7034 75.16 88.2634 67.48 88.2634 57.4C88.2634 47.32 80.7034 39.64 71.2234 39.64C61.6234 39.64 54.0634 47.32 54.0634 57.4ZM122.929 114.4L135.409 85.48L110.809 26.8H128.089L144.169 68.32L160.489 26.8H177.769L139.969 114.4H122.929ZM181.507 40.6V26.8H192.547V9.4H208.387V26.8H222.067V40.6H208.387V88H192.547V40.6H181.507ZM288.21 77.32C281.97 85.36 272.25 89.8 260.85 89.8C240.93 89.8 226.29 76.12 226.29 57.64C226.29 39.28 240.69 25 259.17 25C277.17 25 290.25 38.8 290.25 56.92C290.25 58.72 290.13 61 289.89 63.28H243.69C245.25 70.72 251.37 75.52 260.49 75.52C266.73 75.52 271.17 73.24 275.61 67.96L288.21 77.32ZM244.17 50.68H273.33C272.37 43.72 266.85 39.04 259.05 39.04C251.01 39.04 246.09 43.96 244.17 50.68ZM298.879 88V0.399998H314.719V88H298.879ZM325.715 88V0.399998H341.555V88H325.715Z" fill="black"/>
</svg>
